<?xml version="1.0" encoding="UTF-8" standalone="no"?>
<svg width="210px" height="120px" viewBox="0 0 210 120" version="1.1" xmlns="http://www.w3.org/2000/svg" xmlns:xlink="http://www.w3.org/1999/xlink" xmlns:sketch="http://www.bohemiancoding.com/sketch/ns">
    <!-- Generator: Sketch 3.4.3 (16044) - http://www.bohemiancoding.com/sketch -->
    <title>carousel</title>
    <desc>Created with Sketch.</desc>
    <defs></defs>
    <g id="Page-1" stroke="none" stroke-width="1" fill="none" fill-rule="evenodd" sketch:type="MSPage">
        <g id="component-preview-images" sketch:type="MSArtboardGroup" transform="translate(-30.000000, -130.000000)">
            <g id="carousel" sketch:type="MSLayerGroup" transform="translate(30.000000, 130.000000)">
                <g id="movie" fill="#D2D2D2" sketch:type="MSShapeGroup">
                    <rect id="Rectangle-167" x="0" y="0" width="210" height="99.4736842"></rect>
                </g>
                <g id="Dots" transform="translate(89.526316, 105.000000)">
                    <path d="M29.2894737,0 C30.8158421,0 32.0526316,1.23678947 32.0526316,2.76315789 C32.0526316,4.28952632 30.8158421,5.52631579 29.2894737,5.52631579 C27.7631053,5.52631579 26.5263158,4.28952632 26.5263158,2.76315789 C26.5263158,1.23678947 27.7631053,0 29.2894737,0" id="Fill-1" fill="#9B9B9B" sketch:type="MSShapeGroup"></path>
                    <path d="M20.4473684,0 C21.9737368,0 23.2105263,1.23678947 23.2105263,2.76315789 C23.2105263,4.28952632 21.9737368,5.52631579 20.4473684,5.52631579 C18.921,5.52631579 17.6842105,4.28952632 17.6842105,2.76315789 C17.6842105,1.23678947 18.921,0 20.4473684,0" id="Fill-3" fill="#9B9B9B" sketch:type="MSShapeGroup"></path>
                    <path d="M11.6052632,0 C13.1316316,0 14.3684211,1.23678947 14.3684211,2.76315789 C14.3684211,4.28952632 13.1316316,5.52631579 11.6052632,5.52631579 C10.0788947,5.52631579 8.84210526,4.28952632 8.84210526,2.76315789 C8.84210526,1.23678947 10.0788947,0 11.6052632,0" id="Fill-5" fill="#535353" sketch:type="MSShapeGroup"></path>
                    <path d="M2.76315789,0 C4.28952632,0 5.52631579,1.23678947 5.52631579,2.76315789 C5.52631579,4.28952632 4.28952632,5.52631579 2.76315789,5.52631579 C1.23678947,5.52631579 0,4.28952632 0,2.76315789 C0,1.23678947 1.23678947,0 2.76315789,0" id="Fill-7" fill="#9B9B9B" sketch:type="MSShapeGroup"></path>
                    <g id="Page-1" transform="translate(26.526316, 0.000000)"></g>
                </g>
            </g>
        </g>
    </g>
</svg>