<?xml version="1.0" encoding="UTF-8" standalone="no"?>
<svg width="211px" height="129px" viewBox="0 0 211 129" version="1.1" xmlns="http://www.w3.org/2000/svg" xmlns:xlink="http://www.w3.org/1999/xlink" xmlns:sketch="http://www.bohemiancoding.com/sketch/ns">
    <!-- Generator: sketchtool 3.5.1 (25234) - http://www.bohemiancoding.com/sketch -->
    <title>component preview images</title>
    <desc>Created with sketchtool.</desc>
    <defs></defs>
    <g id="Page-1" stroke="none" stroke-width="1" fill="none" fill-rule="evenodd" sketch:type="MSPage">
        <g id="component-preview-images" sketch:type="MSArtboardGroup" transform="translate(-320.000000, -624.000000)">
            <g id="Spinner+grid" sketch:type="MSLayerGroup" transform="translate(320.000000, 624.000000)">
                <g id="Spinner_Grid" transform="translate(0.000000, 5.000000)" sketch:type="MSShapeGroup">
                    <path d="M111,117.210526 L210.473684,117.210526 L210.473684,73 L111,73 L111,117.210526 Z" id="Fill-5-Copy-4" fill="#D2D2D2"></path>
                    <path d="M111,62.2105263 L210.473684,62.2105263 L210.473684,18 L111,18 L111,62.2105263 Z" id="Fill-5-Copy-5" fill="#D2D2D2"></path>
                    <path d="M1,62.2105263 L100.473684,62.2105263 L100.473684,18 L1,18 L1,62.2105263 Z" id="Fill-5-Copy-6" fill="#D2D2D2"></path>
                    <path d="M1,117.210526 L100.473684,117.210526 L100.473684,73 L1,73 L1,117.210526 Z" id="Fill-5-Copy-7" fill="#D2D2D2"></path>
                    <g id="List-spinner">
                        <rect id="Rectangle-28" fill="#5D5E5D" x="0" y="0" width="101" height="11"></rect>
                        <path d="M92,4 L96,4 L94,8 L92,4 Z" id="Triangle-1" fill="#D8D8D8"></path>
                    </g>
                </g>
            </g>
        </g>
    </g>
</svg>