<?xml version="1.0" encoding="UTF-8" standalone="no"?>
<svg width="30px" height="30px" viewBox="0 0 30 30" version="1.1" xmlns="http://www.w3.org/2000/svg" xmlns:xlink="http://www.w3.org/1999/xlink" xmlns:sketch="http://www.bohemiancoding.com/sketch/ns">
    <!-- Generator: sketchtool 3.4.4 (395) - http://www.bohemiancoding.com/sketch -->
    <title>Large Button Copy 3</title>
    <desc>Created with sketchtool.</desc>
    <defs>
        <path id="path-1" d="M0,0.262777778 L10.1739815,0.262777778 L10.1739815,13.75 L0,13.75 L0,0.262777778 Z"></path>
    </defs>
    <g id="Page-1" stroke="none" stroke-width="1" fill="none" fill-rule="evenodd" sketch:type="MSPage">
        <g id="Small-Button-Options" sketch:type="MSArtboardGroup" transform="translate(-67.000000, -115.000000)">
            <g id="Large-Button-Copy-3" sketch:type="MSLayerGroup" transform="translate(67.000000, 115.000000)">
                <ellipse id="Oval-18" fill="#D03434" sketch:type="MSShapeGroup" cx="15" cy="15" rx="15" ry="15"></ellipse>
                <g id="Page-1" transform="translate(10.000000, 8.000000)">
                    <mask id="mask-2" sketch:name="Clip 2" fill="white">
                        <use xlink:href="#path-1"></use>
                    </mask>
                    <g id="Clip-2"></g>
                    <path d="M6.82325926,1.934625 L3.35112963,1.934625 L3.35112963,1.64740278 C3.35112963,1.40346759 3.5477037,1.20638426 3.79163889,1.20638426 L6.38275,1.20638426 C6.62617593,1.20638426 6.82325926,1.40346759 6.82325926,1.64740278 L6.82325926,1.934625 Z M9.52182407,1.934625 L7.76793519,1.934625 L7.76793519,1.64740278 C7.76742593,0.88249537 7.14765741,0.262726852 6.38275,0.262726852 L3.79163889,0.262726852 C3.02673148,0.262726852 2.40696296,0.88249537 2.40696296,1.64740278 L2.40696296,1.934625 L0.652564815,1.934625 C0.292518519,1.934625 0.000203703704,2.2259213 0.000203703704,2.58698611 L0.000203703704,4.31490278 L10.1741852,4.31490278 L10.1741852,2.58698611 C10.1741852,2.2259213 9.88288889,1.934625 9.52182407,1.934625 L9.52182407,1.934625 Z M2.61881481,6.8871713 C2.61881481,6.62643056 2.83066667,6.41559722 3.09140741,6.41559722 C3.35214815,6.41559722 3.56298148,6.62643056 3.56298148,6.8871713 L3.56298148,11.8590694 C3.56298148,12.1198102 3.35214815,12.331662 3.09140741,12.331662 C2.83066667,12.331662 2.61881481,12.1198102 2.61881481,11.8590694 L2.61881481,6.8871713 Z M4.61511111,6.8871713 C4.61511111,6.62643056 4.82696296,6.41559722 5.0877037,6.41559722 C5.34844444,6.41559722 5.55927778,6.62643056 5.55927778,6.8871713 L5.55927778,11.8590694 C5.55927778,12.1198102 5.34844444,12.331662 5.0877037,12.331662 C4.82696296,12.331662 4.61511111,12.1198102 4.61511111,11.8590694 L4.61511111,6.8871713 Z M6.61242593,6.8871713 C6.61242593,6.62643056 6.82325926,6.41559722 7.084,6.41559722 C7.34423148,6.41559722 7.55608333,6.62643056 7.55608333,6.8871713 L7.55608333,11.8590694 C7.55608333,12.1198102 7.34423148,12.331662 7.084,12.331662 C6.82325926,12.331662 6.61242593,12.1198102 6.61242593,11.8590694 L6.61242593,6.8871713 Z M1.05233333,13.7499491 L9.12307407,13.7499491 L9.12307407,5.16893056 L1.05233333,5.16893056 L1.05233333,13.7499491 Z" id="Fill-1" fill="#FFFFFF" sketch:type="MSShapeGroup" mask="url(#mask-2)"></path>
                </g>
            </g>
        </g>
    </g>
</svg>