<?xml version="1.0" encoding="UTF-8" standalone="no"?>
<svg width="120px" height="120px" viewBox="0 0 120 120" version="1.1" xmlns="http://www.w3.org/2000/svg" xmlns:xlink="http://www.w3.org/1999/xlink" xmlns:sketch="http://www.bohemiancoding.com/sketch/ns">
    <!-- Generator: sketchtool 3.4.4 (395) - http://www.bohemiancoding.com/sketch -->
    <title>grid view</title>
    <desc>Created with sketchtool.</desc>
    <defs></defs>
    <g id="Page-1" stroke="none" stroke-width="1" fill="none" fill-rule="evenodd" sketch:type="MSPage">
        <g id="Modal---Add-Component-2" sketch:type="MSArtboardGroup" transform="translate(-592.000000, -454.000000)" fill="#1B2B37">
            <g id="divider-ico-copy" sketch:type="MSLayerGroup" transform="translate(592.000000, 454.000000)">
                <path d="M18.0909795,37 C17.4890335,37 17,37.4844559 17,38.0802986 L17,55.5054533 C17,56.100533 17.4890335,56.5849889 18.0909795,56.5849889 L42.6921852,56.5849889 C43.2933683,56.5849889 43.7831647,56.100533 43.7831647,55.5054533 L43.7831647,38.0802986 C43.7831647,37.4844559 43.2933683,37 42.6921852,37 L18.0909795,37 Z" id="Fill-4" sketch:type="MSShapeGroup"></path>
                <path d="M18.0909795,60 C17.4890335,60 17,60.4844559 17,61.0802986 L17,78.5054533 C17,79.100533 17.4890335,79.5849889 18.0909795,79.5849889 L42.6921852,79.5849889 C43.2933683,79.5849889 43.7831647,79.100533 43.7831647,78.5054533 L43.7831647,61.0802986 C43.7831647,60.4844559 43.2933683,60 42.6921852,60 L18.0909795,60 Z" id="Fill-4-Copy" sketch:type="MSShapeGroup"></path>
                <path d="M18.0909795,82 C17.4890335,82 17,82.4844559 17,83.0802986 L17,100.505453 C17,101.100533 17.4890335,101.584989 18.0909795,101.584989 L42.6921852,101.584989 C43.2933683,101.584989 43.7831647,101.100533 43.7831647,100.505453 L43.7831647,83.0802986 C43.7831647,82.4844559 43.2933683,82 42.6921852,82 L18.0909795,82 Z" id="Fill-4-Copy-2" sketch:type="MSShapeGroup"></path>
                <path d="M48.0909795,37 C47.4890335,37 47,37.4844559 47,38.0802986 L47,55.5054533 C47,56.100533 47.4890335,56.5849889 48.0909795,56.5849889 L72.6921852,56.5849889 C73.2933683,56.5849889 73.7831647,56.100533 73.7831647,55.5054533 L73.7831647,38.0802986 C73.7831647,37.4844559 73.2933683,37 72.6921852,37 L48.0909795,37 Z" id="Fill-6" sketch:type="MSShapeGroup"></path>
                <path d="M48.0909795,60 C47.4890335,60 47,60.4844559 47,61.0802986 L47,78.5054533 C47,79.100533 47.4890335,79.5849889 48.0909795,79.5849889 L72.6921852,79.5849889 C73.2933683,79.5849889 73.7831647,79.100533 73.7831647,78.5054533 L73.7831647,61.0802986 C73.7831647,60.4844559 73.2933683,60 72.6921852,60 L48.0909795,60 Z" id="Fill-6-Copy" sketch:type="MSShapeGroup"></path>
                <path d="M48.0909795,82 C47.4890335,82 47,82.4844559 47,83.0802986 L47,100.505453 C47,101.100533 47.4890335,101.584989 48.0909795,101.584989 L72.6921852,101.584989 C73.2933683,101.584989 73.7831647,101.100533 73.7831647,100.505453 L73.7831647,83.0802986 C73.7831647,82.4844559 73.2933683,82 72.6921852,82 L48.0909795,82 Z" id="Fill-6-Copy-2" sketch:type="MSShapeGroup"></path>
                <path d="M78.0909795,37 C77.4890335,37 77,37.4844559 77,38.0802986 L77,55.5054533 C77,56.100533 77.4890335,56.5849889 78.0909795,56.5849889 L102.692185,56.5849889 C103.293368,56.5849889 103.783165,56.100533 103.783165,55.5054533 L103.783165,38.0802986 C103.783165,37.4844559 103.293368,37 102.692185,37 L78.0909795,37 Z" id="Fill-8" sketch:type="MSShapeGroup"></path>
                <path d="M78.0909795,60 C77.4890335,60 77,60.4844559 77,61.0802986 L77,78.5054533 C77,79.100533 77.4890335,79.5849889 78.0909795,79.5849889 L102.692185,79.5849889 C103.293368,79.5849889 103.783165,79.100533 103.783165,78.5054533 L103.783165,61.0802986 C103.783165,60.4844559 103.293368,60 102.692185,60 L78.0909795,60 Z" id="Fill-8-Copy" sketch:type="MSShapeGroup"></path>
                <path d="M78.0909795,82 C77.4890335,82 77,82.4844559 77,83.0802986 L77,100.505453 C77,101.100533 77.4890335,101.584989 78.0909795,101.584989 L102.692185,101.584989 C103.293368,101.584989 103.783165,101.100533 103.783165,100.505453 L103.783165,83.0802986 C103.783165,82.4844559 103.293368,82 102.692185,82 L78.0909795,82 Z" id="Fill-8-Copy-2" sketch:type="MSShapeGroup"></path>
            </g>
        </g>
    </g>
</svg>