<?xml version="1.0" encoding="UTF-8" standalone="no"?>
<svg width="30px" height="30px" viewBox="0 0 30 30" version="1.1" xmlns="http://www.w3.org/2000/svg" xmlns:xlink="http://www.w3.org/1999/xlink" xmlns:sketch="http://www.bohemiancoding.com/sketch/ns">
    <!-- Generator: sketchtool 3.5.1 (25234) - http://www.bohemiancoding.com/sketch -->
    <title>Republish</title>
    <desc>Created with sketchtool.</desc>
    <defs></defs>
    <g id="Page-1" stroke="none" stroke-width="1" fill="none" fill-rule="evenodd" sketch:type="MSPage">
        <g id="Versions-with-bundles-v2" sketch:type="MSArtboardGroup" transform="translate(-1240.000000, -304.000000)">
            <g id="Republish-Button" sketch:type="MSLayerGroup" transform="translate(1240.000000, 304.000000)">
                <ellipse id="Oval-18-Copy" fill="#4BB972" sketch:type="MSShapeGroup" cx="15" cy="15" rx="15" ry="15"></ellipse>
                <path d="M18.408556,8.89003073 C18.3608847,8.86378588 18.3048581,8.85758348 18.2525734,8.87260251 C18.20034,8.88762153 18.1562569,8.92283679 18.1298583,8.9705081 L17.2375846,10.5857966 C17.182942,10.6848812 17.2187724,10.8096468 17.3181132,10.8642894 C18.8286274,11.6988449 19.7671371,13.2877348 19.7671371,15.0111295 C19.7671371,17.6211594 17.6436622,19.7445831 15.0336323,19.7445831 C12.4233973,19.7445831 10.2999736,17.6211594 10.2999736,15.0111295 C10.2999736,14.031561 10.6098884,13.0662426 11.1767669,12.2677225 L12.5908108,13.6815613 C12.6456584,13.736409 12.7265459,13.7556313 12.800257,13.7312317 C12.8737631,13.706781 12.9273805,13.6431167 12.9386063,13.5662275 L13.7169302,8.2346271 C13.7263106,8.17055275 13.7048842,8.10591456 13.6590582,8.06003733 C13.613181,8.01421136 13.5483377,7.9927849 13.4844684,8.00216538 L8.15286804,8.78048923 C8.07618387,8.79171506 8.01231456,8.84533247 7.98786379,8.91883855 C7.96346428,8.99254968 7.98268659,9.07364216 8.03753422,9.1284898 L9.56670685,10.6576624 C8.58396021,11.8931183 8.04455677,13.4314663 8.04455677,15.0111295 C8.04455677,18.8647655 11.1797912,22 15.0336323,22 C18.8873195,22 22.022554,18.8647655 22.022554,15.0111295 C22.022554,12.4669681 20.637728,10.1214371 18.408556,8.89003073" id="Fill-1" fill="#FFFFFF" sketch:type="MSShapeGroup"></path>
            </g>
        </g>
    </g>
</svg>