<?xml version="1.0" encoding="UTF-8" standalone="no"?>
<svg width="30px" height="30px" viewBox="0 0 30 30" version="1.1" xmlns="http://www.w3.org/2000/svg" xmlns:xlink="http://www.w3.org/1999/xlink" xmlns:sketch="http://www.bohemiancoding.com/sketch/ns">
    <!-- Generator: sketchtool 3.4.4 (395) - http://www.bohemiancoding.com/sketch -->
    <title>Done</title>
    <desc>Created with sketchtool.</desc>
    <defs></defs>
    <g id="Page-1" stroke="none" stroke-width="1" fill="none" fill-rule="evenodd" sketch:type="MSPage">
        <g id="Small-Button-Options" sketch:type="MSArtboardGroup" transform="translate(-104.000000, -115.000000)">
            <g id="Done" sketch:type="MSLayerGroup" transform="translate(104.000000, 115.000000)">
                <g id="Large-Button-Copy-4" fill="#45BC74" sketch:type="MSShapeGroup">
                    <ellipse id="Oval-18" cx="15" cy="15" rx="15" ry="15"></ellipse>
                </g>
                <path d="M20.3675065,9.00189602 L22.3713518,10.7133474 C22.4509775,10.7813543 22.4606873,10.9011455 22.3941502,10.9818573 L14.2269258,20.8889856 C14.1856913,20.9390045 14.1249926,20.9620837 14.0659597,20.9565137 C14.0280953,20.9534285 13.9906971,20.9386481 13.9592534,20.9117926 L8.52207958,16.2679919 C8.44197928,16.1995795 8.43149879,16.0793657 8.49789529,15.9988244 L10.1793212,13.9591961 C10.246135,13.8781485 10.3641954,13.868582 10.4439485,13.9366978 L13.7367715,16.7490438 L20.103756,9.02566935 C20.1705391,8.94465912 20.2883782,8.93431387 20.3675065,9.00189602 L20.3675065,9.00189602 Z" id="Shape" fill="#FFFFFF" sketch:type="MSShapeGroup"></path>
            </g>
        </g>
    </g>
</svg>