<?xml version="1.0" encoding="UTF-8" standalone="no"?>
<svg width="30px" height="30px" viewBox="0 0 30 30" version="1.1" xmlns="http://www.w3.org/2000/svg" xmlns:xlink="http://www.w3.org/1999/xlink" xmlns:sketch="http://www.bohemiancoding.com/sketch/ns">
    <!-- Generator: sketchtool 3.5.1 (25234) - http://www.bohemiancoding.com/sketch -->
    <title>Edit</title>
    <desc>Created with sketchtool.</desc>
    <defs></defs>
    <g id="Page-1" stroke="none" stroke-width="1" fill="none" fill-rule="evenodd" sketch:type="MSPage">
        <g id="Versions-with-bundles-v2" sketch:type="MSArtboardGroup" transform="translate(-1240.000000, -658.000000)">
            <g id="Edit-Button" sketch:type="MSLayerGroup" transform="translate(1240.000000, 658.000000)">
                <ellipse id="Oval-18" fill="#6B94B3" sketch:type="MSShapeGroup" cx="15" cy="15" rx="15" ry="15"></ellipse>
                <path d="M19.7501883,14.565019 L19.7501883,20.6249429 L10.3751248,20.6249429 L10.3751248,11.2498794 L16.4354881,11.2498794 L18.3100028,9.37486671 L8.50011215,9.37486671 L8.50011215,22.4999556 L21.625201,22.4999556 L21.625201,12.6895376 L19.7501883,14.565019 Z M13.1446065,15.8669224 L12.482229,18.5183075 L15.1336141,17.8554612 L21.7625457,11.2265296 L19.7730986,9.23752203 L13.1446065,15.8669224 Z M23.0882383,7.91185876 C23.6375584,8.46117888 23.6366502,9.35154624 23.0882383,9.90086637 L22.425392,10.5637127 L20.4359449,8.57470504 L21.0987912,7.91185876 C21.648082,7.36300739 22.5389181,7.36253863 23.0882383,7.91185876 L23.0882383,7.91185876 Z" id="Fill-1" fill="#FFFFFF" sketch:type="MSShapeGroup"></path>
            </g>
        </g>
    </g>
</svg>